<svg width="37" height="36" viewBox="0 0 37 36" fill="none" xmlns="http://www.w3.org/2000/svg">
<path d="M3.25 35.9999L1.15 33.8999L22.15 12.8999C21.4167 11.2999 21.25 9.6416 21.65 7.92493C22.05 6.20827 23 4.59993 24.5 3.09993C26 1.63327 27.8167 0.691601 29.95 0.274934C32.0833 -0.141732 33.8333 0.333268 35.2 1.69993C36.6 3.09993 37.075 4.84993 36.625 6.94993C36.175 9.04994 35.1667 10.8999 33.6 12.4999C32.2333 13.8999 30.7083 14.8166 29.025 15.2499C27.3417 15.6833 25.7667 15.5833 24.3 14.9499L20.95 18.2999L36.55 33.8999L34.45 35.9999L18.85 20.3999L3.25 35.9999ZM9.5 18.4499L3.55 12.4999C1.85 10.7999 0.966663 8.78327 0.899996 6.44993C0.833329 4.1166 1.6 2.04993 3.2 0.249934L15.45 12.4999L9.5 18.4499Z" fill="black"/>
</svg>
