<svg width="36" height="20" viewBox="0 0 36 20" fill="none" xmlns="http://www.w3.org/2000/svg">
<path d="M1.49125 20C1.06375 20 0.708333 19.8554 0.425 19.5663C0.141667 19.2771 0 18.9187 0 18.4913C0 18.0638 0.144583 17.7083 0.43375 17.425C0.72295 17.1417 1.08128 17 1.50875 17C1.93625 17 2.29167 17.1446 2.575 17.4338C2.85833 17.7229 3 18.0813 3 18.5087C3 18.9362 2.85542 19.2917 2.56625 19.575C2.27705 19.8583 1.91872 20 1.49125 20ZM1.49125 11.5C1.06375 11.5 0.708333 11.3554 0.425 11.0663C0.141667 10.7771 0 10.4187 0 9.99125C0 9.56375 0.144583 9.20833 0.43375 8.925C0.72295 8.64167 1.08128 8.5 1.50875 8.5C1.93625 8.5 2.29167 8.64458 2.575 8.93375C2.85833 9.22295 3 9.58128 3 10.0087C3 10.4362 2.85542 10.7917 2.56625 11.075C2.27705 11.3583 1.91872 11.5 1.49125 11.5ZM1.49125 3C1.06375 3 0.708333 2.85542 0.425 2.56625C0.141667 2.27705 0 1.91872 0 1.49125C0 1.06375 0.144583 0.708333 0.43375 0.425C0.72295 0.141667 1.08128 0 1.50875 0C1.93625 0 2.29167 0.144583 2.575 0.433749C2.85833 0.722949 3 1.08128 3 1.50875C3 1.93625 2.85542 2.29167 2.56625 2.575C2.27705 2.85833 1.91872 3 1.49125 3ZM8.5 20V17H36V20H8.5ZM8.5 11.5V8.5H36V11.5H8.5ZM8.5 3V0H36V3H8.5Z" fill="black"/>
</svg>
