<svg width="32" height="30" viewBox="0 0 32 30" fill="none" xmlns="http://www.w3.org/2000/svg">
<path d="M30.2627 0.75C31.1304 0.75 31.8334 1.45458 31.8334 2.32225V27.6778C31.8305 28.0936 31.6641 28.4916 31.3702 28.7857C31.0763 29.0799 30.6785 29.2467 30.2627 29.25H1.73735C1.32064 29.2496 0.921141 29.0837 0.626629 28.7889C0.332117 28.4941 0.166687 28.0945 0.166687 27.6778V2.32225C0.169585 1.90643 0.335946 1.50844 0.629833 1.21426C0.923719 0.920078 1.32154 0.753317 1.73735 0.75H30.2627ZM28.6667 3.91667H3.33335V26.0833H28.6667V3.91667ZM25.5 19.75V22.9167H6.50002V19.75H25.5ZM16 7.08333V16.5833H6.50002V7.08333H16ZM25.5 13.4167V16.5833H19.1667V13.4167H25.5ZM12.8334 10.25H9.66669V13.4167H12.8334V10.25ZM25.5 7.08333V10.25H19.1667V7.08333H25.5Z" fill="black"/>
</svg>
